<svg xmlns="http://www.w3.org/2000/svg" width="420" height="760" viewBox="0 0 420 760" role="img" aria-label="Jonglock app booth detail preview">
  <defs>
    <linearGradient id="bg" x1="0" x2="1" y1="0" y2="1"><stop offset="0" stop-color="#eef8f7"/><stop offset="1" stop-color="#f8fffd"/></linearGradient>
    <filter id="shadow" x="-20%" y="-20%" width="140%" height="140%"><feDropShadow dx="0" dy="14" stdDeviation="16" flood-color="#0f172a" flood-opacity="0.18"/></filter>
  </defs>
  <rect width="420" height="760" rx="42" fill="url(#bg)"/>
  <rect x="122" y="18" width="112" height="36" rx="18" fill="#020817"/>
  <text x="42" y="48" font-family="Arial, sans-serif" font-size="22" font-weight="700" fill="#020817">15:26</text>
  <rect x="30" y="88" width="82" height="46" rx="22" fill="#fff" stroke="#dbe8ef" stroke-width="2"/>
  <text x="56" y="118" font-family="Arial, sans-serif" font-size="20" font-weight="800" fill="#020817">กลับ</text>
  <rect x="30" y="174" width="360" height="86" rx="26" fill="#fff" stroke="#dbe8ef" stroke-width="2" filter="url(#shadow)"/>
  <rect x="58" y="202" width="44" height="44" rx="16" fill="#e7f7f4"/>
  <text x="122" y="214" font-family="Arial, sans-serif" font-size="18" font-weight="900" letter-spacing="2" fill="#0f766e">Jonglock Demo Market</text>
  <text x="122" y="240" font-family="Arial, sans-serif" font-size="28" font-weight="900" fill="#020817">สรุปรายการจอง</text>
  <text x="122" y="254" font-family="Arial, sans-serif" font-size="15" font-weight="800" fill="#64748b">Test Plan • A03 • BKJ7ZHUBDFQOGN</text>
  <text x="30" y="314" font-family="Arial, sans-serif" font-size="28" font-weight="900" fill="#020817">วันที่จอง</text>
  <text x="350" y="314" text-anchor="end" font-family="Arial, sans-serif" font-size="18" font-weight="900" fill="#64748b">5 วัน</text>
  <rect x="30" y="340" width="360" height="250" rx="24" fill="#fff" stroke="#dbe8ef" stroke-width="2" filter="url(#shadow)"/>
  <g font-family="Arial, sans-serif">
    <text x="56" y="386" font-size="22" font-weight="900" fill="#020817">8 มิ.ย. 2569</text><text x="56" y="411" font-size="16" font-weight="800" fill="#64748b">Booth A03 • Jonglock Demo Market</text><text x="342" y="394" text-anchor="end" font-size="20" font-weight="900" fill="#020817">500.00</text>
    <line x1="30" x2="390" y1="430" y2="430" stroke="#e2e8f0"/>
    <text x="56" y="468" font-size="22" font-weight="900" fill="#020817">9 มิ.ย. 2569</text><text x="56" y="493" font-size="16" font-weight="800" fill="#64748b">Booth A03 • Jonglock Demo Market</text><text x="342" y="476" text-anchor="end" font-size="20" font-weight="900" fill="#020817">500.00</text>
    <line x1="30" x2="390" y1="512" y2="512" stroke="#e2e8f0"/>
    <text x="56" y="550" font-size="22" font-weight="900" fill="#020817">10 มิ.ย. 2569</text><text x="56" y="575" font-size="16" font-weight="800" fill="#64748b">และอีก 3 รายการ</text><text x="342" y="558" text-anchor="end" font-size="20" font-weight="900" fill="#020817">500.00</text>
  </g>
  <text x="30" y="640" font-family="Arial, sans-serif" font-size="26" font-weight="900" fill="#020817">บริการเสริม</text>
  <rect x="30" y="662" width="360" height="58" rx="22" fill="#fff" stroke="#dbe8ef" stroke-width="2"/>
  <rect x="54" y="676" width="34" height="34" rx="13" fill="#e7f7f4"/>
  <text x="108" y="693" font-family="Arial, sans-serif" font-size="20" font-weight="900" fill="#020817">เก้าอี้</text>
  <text x="108" y="713" font-family="Arial, sans-serif" font-size="16" font-weight="800" fill="#64748b">30.00 บาท/วัน</text>
</svg>
