<svg xmlns="http://www.w3.org/2000/svg" width="420" height="760" viewBox="0 0 420 760" role="img" aria-label="Jonglock app market list preview">
  <defs>
    <linearGradient id="bg" x1="0" x2="1" y1="0" y2="1">
      <stop offset="0" stop-color="#f8fffd"/>
      <stop offset="1" stop-color="#eef8f7"/>
    </linearGradient>
    <linearGradient id="market" x1="0" x2="1" y1="0" y2="1">
      <stop offset="0" stop-color="#ff9b42"/>
      <stop offset="0.5" stop-color="#129c8e"/>
      <stop offset="1" stop-color="#061427"/>
    </linearGradient>
    <filter id="shadow" x="-20%" y="-20%" width="140%" height="140%">
      <feDropShadow dx="0" dy="16" stdDeviation="18" flood-color="#0f172a" flood-opacity="0.16"/>
    </filter>
  </defs>
  <rect width="420" height="760" rx="42" fill="url(#bg)"/>
  <rect x="122" y="18" width="112" height="36" rx="18" fill="#020817"/>
  <text x="42" y="48" font-family="Arial, sans-serif" font-size="22" font-weight="700" fill="#020817">15:34</text>
  <rect x="32" y="86" width="302" height="48" rx="24" fill="#fff" stroke="#dbe8ef" stroke-width="2" filter="url(#shadow)"/>
  <circle cx="58" cy="110" r="10" fill="none" stroke="#64748b" stroke-width="4"/>
  <path d="M66 118l11 11" stroke="#64748b" stroke-width="4" stroke-linecap="round"/>
  <text x="92" y="118" font-family="Arial, sans-serif" font-size="20" font-weight="700" fill="#94a3b8">ค้นหาชื่อตลาดหรือรหัสตลาด</text>
  <rect x="346" y="86" width="54" height="54" rx="18" fill="#14b8a6"/>
  <path d="M363 101h8v8h-8zm14 0h8v8h-8zm-14 14h8v8h-8zm14 14h8v8h-8zm0-14h8v8h-8z" fill="#fff"/>
  <text x="32" y="190" font-family="Arial, sans-serif" font-size="30" font-weight="800" fill="#020817">ตลาดทั้งหมด</text>
  <text x="340" y="190" font-family="Arial, sans-serif" font-size="19" font-weight="800" fill="#64748b">3 ตลาด</text>
  <g filter="url(#shadow)">
    <rect x="32" y="218" width="368" height="126" rx="24" fill="url(#market)"/>
    <rect x="32" y="218" width="368" height="126" rx="24" fill="#020817" opacity="0.34"/>
    <text x="58" y="260" font-family="Arial, sans-serif" font-size="18" font-weight="900" fill="#fff">MKT001</text>
    <text x="58" y="292" font-family="Arial, sans-serif" font-size="30" font-weight="900" fill="#fff">Jonglock Demo Market</text>
    <text x="58" y="324" font-family="Arial, sans-serif" font-size="19" font-weight="900" fill="#5eead4">ตลาดเปิด</text>
  </g>
  <g filter="url(#shadow)">
    <rect x="32" y="366" width="368" height="126" rx="24" fill="#253548"/>
    <circle cx="82" cy="410" r="35" fill="#f59e0b"/>
    <circle cx="155" cy="435" r="46" fill="#22c55e" opacity=".7"/>
    <rect x="236" y="390" width="92" height="56" rx="12" fill="#475569"/>
    <rect x="32" y="366" width="368" height="126" rx="24" fill="#020817" opacity="0.42"/>
    <text x="58" y="408" font-family="Arial, sans-serif" font-size="18" font-weight="900" fill="#fff">MKT002</text>
    <text x="58" y="440" font-family="Arial, sans-serif" font-size="30" font-weight="900" fill="#fff">Jonglock Truck</text>
    <text x="58" y="472" font-family="Arial, sans-serif" font-size="19" font-weight="900" fill="#fecaca">ตลาดปิด</text>
  </g>
  <g filter="url(#shadow)">
    <rect x="32" y="514" width="368" height="126" rx="24" fill="#566f58"/>
    <path d="M38 590c66-76 145-72 230-24 44 25 73 25 94 2v72H38z" fill="#f8fafc" opacity=".45"/>
    <rect x="32" y="514" width="368" height="126" rx="24" fill="#020817" opacity="0.36"/>
    <text x="58" y="556" font-family="Arial, sans-serif" font-size="18" font-weight="900" fill="#fff">MKT003</text>
    <text x="58" y="588" font-family="Arial, sans-serif" font-size="30" font-weight="900" fill="#fff">ZoneMarket</text>
    <text x="58" y="620" font-family="Arial, sans-serif" font-size="19" font-weight="900" fill="#fecaca">ตลาดปิด</text>
  </g>
  <rect x="32" y="684" width="368" height="56" rx="28" fill="#fff" stroke="#dbe8ef" stroke-width="2"/>
  <circle cx="210" cy="684" r="34" fill="#14b8a6"/>
  <text x="58" y="724" font-family="Arial, sans-serif" font-size="14" font-weight="800" fill="#0f172a">หน้าหลัก</text>
  <text x="181" y="724" font-family="Arial, sans-serif" font-size="14" font-weight="800" fill="#0f172a">จอง</text>
  <text x="290" y="724" font-family="Arial, sans-serif" font-size="14" font-weight="800" fill="#0f172a">ตะกร้า</text>
</svg>
